<svg xmlns="http://www.w3.org/2000/svg" version="1.1" xmlns:xlink="http://www.w3.org/1999/xlink" xmlns:svgjs="http://svgjs.com/svgjs" width="512" height="521"><svg width="512" height="521" xmlns="http://www.w3.org/2000/svg" preserveAspectRatio="xMidYMid meet">

 <g>
  <title>background</title>
  <rect fill="none" id="SvgjsRect1001" height="523" width="514" y="-1" x="-1"></rect>
 </g>
 <g>
  <title>Layer 1</title>
  <path id="SvgjsPath1000" d="m224.838403,-0.234494c-18.3,1.8 -49.600001,9.4 -67.500001,16.5c-46.800001,18.3 -81.300001,43.900001 -113.000002,83.500001c-16.7,20.9 -28.3,41.900001 -38.200001,69.000001c-4.4,12 -8.6,29.5 -7.9,32.5c0.8,3.1 2,3.4 17,4.2c12.9,0.6 13.2,0.5 15.9,-1.8c2.1,-1.8 3.5,-4.9 5.8,-12.8c1.7,-5.7 4.1,-12.8 5.4,-15.7l2.4,-5.4l22.2,0l22.2,0l19.8,19.5l19.9,19.5l26,0l26,0l0,-8l0,-8l-22.3,0l-22.2,0l-26.4,-26.4l-26.4,-26.4l0.6,-13.4l0.7,-13.3l28.2,-27.7l28.3,-27.7l115.500002,-0.1l115.500002,0l-13.5,13.5l-13.5,13.5l-95.500001,0l-95.500001,0l-16.8,16.8c-18.2,18.2 -17.5,17.1 -16.1,27.6l0.7,4.6l22.3,0l22.4,0l0,-5.5l0,-5.5l68.200001,0l68.300001,0l-11.5,11.6c-6.3,6.4 -40.100001,39.300001 -75.000001,73.200001c-34.900001,34.000001 -86.000001,83.600001 -113.600002,110.400002c-49.100001,47.700001 -50.200001,48.700001 -51.700001,46.500001c-3.7,-5.7 -9.1,-17.8 -13.2,-29.8c-2.5,-7.3 -5,-13.8 -5.6,-14.6c-1.9,-2.3 -31.2,-1.3 -33.600001,1.1c-2.4,2.4 3.4,22.7 12.6,44.000001c18.9,43.900001 53.300001,85.000001 94.400001,112.400002c34.300001,23 78.300001,39.100001 118.200002,43.200001c15.6,1.7 53.100001,1.3 66.500001,-0.5c89.000001,-12.3 164.100002,-64.500001 203.000003,-141.000002c10.1,-19.9 20,-46.900001 20,-54.500001c0,-5.3 -0.8,-5.5 -32.8,-5.9c-16.2,-0.1 -32.5,0 -36.100001,0.4l-6.6,0.7l-31.5,31.4l-31.5,31.4l12,0l12,0l13.5,-13.5l13.5,-13.5l12,0c6.6,0 12.7,0.5 13.5,1c1.9,1.2 2.6,14.9 1.1,20.5c-0.7,2.8 -3.5,6.7 -9.2,12.8l-8.1,8.7l-132.400002,0c-81.500001,0 -132.400002,-0.4 -132.400002,-0.9c0,-0.8 43.200001,-42.600001 107.000002,-103.500002c8.3,-8 33.2,-32.1 92.500001,-89.600001c8.8,-8.5 19.2,-18.6 23.2,-22.4l7.2,-6.9l15.4,14.6l15.5,14.7l38.800001,0c21.4,0 39.900001,-0.3 41.200001,-0.6c1.9,-0.5 2.2,-1.3 2.2,-5.4c0,-5.9 -5.3,-24.8 -11,-39.000001c-14.4,-36.100001 -41.900001,-73.700001 -73.100001,-99.800001c-36.300001,-30.5 -84.000001,-51.300001 -134.100002,-58.800001c-12.1,-1.8 -57.900001,-2.7 -70.800001,-1.4zm177.500003,91.000001c2.9,1.1 32.5,29.8 51.700001,50.300001c10.8,11.4 12.1,13.2 12.5,17c0.4,3.6 0.1,4.8 -2.2,7.5c-2.7,3.2 -2.7,3.2 -12.3,3.2l-9.7,0l-20.5,-20.5c-20.4,-20.4 -20.5,-20.5 -24.9,-20.5l-4.4,0l-30.9,30.6c-17,16.8 -32.4,31.4 -34.100001,32.5c-8.4,5.1 -19.6,-1 -19.7,-10.8c0,-5.4 1.7,-8.1 12.3,-19.5c13.9,-15 69.400001,-68.700001 72.100001,-69.800001c2.9,-1.2 7,-1.2 10.1,0zm-125.200002,124.400002c6.9,2.9 10.9,9.8 9.3,16.2c-0.4,1.5 -7,8.7 -16.4,17.7c-8.6,8.4 -32.5,31.6 -53.200001,51.800001c-20.6,20.1 -49.100001,47.700001 -63.400001,61.500001c-28.5,27.4 -32.6,32.1 -32.6,36.800001c0,4.8 2.8,8.4 17.7,23l13.8,13.6l114.000002,0c111.300002,0 127.500002,0.3 127.500002,2.2c0,0.6 -5.5,6.6 -12.2,13.4l-12.1,12.4l-114.100002,0l-114.100002,0l-28.9,-28.9l-28.9,-28.9l0.5,-8.6l0.4,-8.7l7,-7c20.9,-21.3 161.900002,-156.600002 171.200003,-164.300002c4.9,-4 8.9,-4.6 14.5,-2.2z"></path>
 </g>
</svg><style>@media (prefers-color-scheme: light) { :root { filter: none; } }
</style></svg>