<svg xmlns="http://www.w3.org/2000/svg" xmlns:xlink="http://www.w3.org/1999/xlink"
    width="512" height="512" fill="#f1f0ed">
    <path
        d="M225.061 0.602426C206.891 2.36559 175.814 9.80022 158.042 16.7549C111.576 34.6803 77.3216 59.7661 45.8476 98.5555C29.2667 119.029 17.7493 139.596 7.91993 166.143C3.5513 177.898 -0.618754 195.039 0.0762558 197.978C0.870551 201.013 2.06201 201.299 16.9551 202.082C29.7631 202.671 30.061 202.572 32.7417 200.319C34.8267 198.557 36.2168 195.53 38.5004 187.791C40.1882 182.206 42.5711 175.244 43.8619 172.402L46.2447 167.123L68.2865 167.123L90.3282 167.123L109.987 186.224L129.745 205.324L155.56 205.324L181.374 205.324L181.374 197.488L181.374 189.652L159.233 189.652L137.192 189.652L110.98 163.792L84.7681 137.933L85.3639 124.807L86.0589 111.779L114.058 84.6462L142.156 57.5132L256.833 57.4152L371.509 57.4152L358.105 70.6291L344.702 83.8625L249.883 83.8625L155.063 83.8625L138.383 100.319C120.313 118.146 121.008 117.069 122.398 127.354L123.093 131.86L145.234 131.86L167.474 131.86L167.474 126.472L167.474 121.085L235.188 121.085L303.001 121.085L291.583 132.447C285.328 138.717 251.769 170.944 217.118 204.149C182.467 237.453 131.731 286.038 104.328 312.289C55.5785 359.013 54.4856 359.992 52.9963 357.837C49.3226 352.254 43.9611 340.402 39.8904 328.647C37.4082 321.497 34.926 315.13 34.3303 314.346C32.4438 312.093 3.35273 313.073 0.96984 315.424C-1.41305 317.775 4.34558 337.659 13.48 358.523C32.2453 401.524 66.4008 441.783 107.207 468.622C141.262 491.151 184.949 506.923 224.564 510.938C240.053 512.603 277.286 512.21 290.59 510.448C378.956 498.401 453.52 447.268 492.143 372.334C502.171 352.842 512 326.394 512 318.95C512 313.758 511.206 313.563 479.434 313.171C463.35 313.073 447.166 313.171 443.592 313.563L437.039 314.248L405.763 345.005L374.488 375.763L386.402 375.763L398.317 375.763L411.72 362.539L425.124 349.315L437.039 349.315C443.592 349.315 449.648 349.805 450.442 350.295C452.329 351.47 453.024 364.889 451.535 370.375C450.84 373.117 448.06 376.939 442.4 382.913L434.358 391.435L302.902 391.435C221.983 391.435 171.446 391.043 171.446 390.554C171.446 389.77 214.338 348.826 277.683 289.172C285.924 281.336 310.646 257.729 369.523 201.406C378.261 193.08 388.587 183.186 392.558 179.465L399.707 172.706L414.997 187.007L430.386 201.406L468.91 201.406C490.157 201.406 508.525 201.112 509.816 200.819C511.703 200.329 512 199.544 512 195.529C512 189.749 506.738 171.237 501.079 157.327C486.781 121.966 459.478 85.1359 428.5 59.5702C392.459 29.6945 345.099 9.32025 295.356 1.97377C283.342 0.210606 237.869 -0.67096 225.061 0.602426ZM401.295 89.7397C404.175 90.8172 433.564 118.931 452.627 139.01C463.35 150.176 464.64 151.941 465.038 155.662C465.435 159.189 465.137 160.364 462.853 163.009C460.173 166.144 460.173 166.143 450.641 166.143L441.01 166.143L420.656 146.063C400.402 126.079 400.302 125.982 395.934 125.982L391.565 125.982L360.885 155.956C344.007 172.413 328.716 186.714 327.029 187.791C318.688 192.787 307.568 186.811 307.469 177.212C307.469 171.923 309.157 169.277 319.681 158.111C333.482 143.418 388.587 90.8172 391.267 89.7397C394.147 88.5643 398.217 88.5643 401.295 89.7397ZM276.988 211.584C283.839 214.425 287.81 221.192 286.222 227.462C285.824 228.931 279.272 235.984 269.939 244.799C261.4 253.028 237.67 275.743 217.118 295.529C196.665 315.218 168.368 342.263 154.17 355.78C125.873 382.619 121.802 387.223 121.802 391.827C121.802 396.529 124.582 400.055 139.376 414.356L153.078 427.678L266.265 427.678C376.771 427.678 392.856 427.972 392.856 429.833C392.856 430.421 387.395 436.298 380.743 442.959L368.729 455.105L255.443 455.105L142.156 455.105L113.462 426.796L84.7681 398.488L85.2646 390.064L85.6617 381.542L92.6118 374.685C113.362 353.821 253.358 221.291 262.591 213.748C267.456 209.83 271.428 209.234 276.988 211.584Z" />
</svg>